<svg xmlns="http://www.w3.org/2000/svg" viewBox="0 0 1170.93 356.77"><defs><style>.cls-1{font-size:93px;letter-spacing:0.04em;}.cls-1,.cls-11,.cls-4,.cls-9{fill:#fff;}.cls-1,.cls-4{font-family:Baskerville;}.cls-2{letter-spacing:0.01em;}.cls-3{letter-spacing:0.04em;}.cls-4{font-size:46px;letter-spacing:0.01em;}.cls-5{letter-spacing:0.04em;}.cls-6{letter-spacing:0em;}.cls-7{letter-spacing:0.02em;}.cls-12,.cls-13,.cls-8{fill:none;}.cls-12,.cls-14,.cls-8{stroke:#fff;}.cls-12,.cls-13,.cls-14,.cls-8{stroke-miterlimit:10;}.cls-8{stroke-width:4px;}.cls-9{font-size:102.95px;font-family:Baskerville-SemiBold, Baskerville;font-weight:600;letter-spacing:0.04em;}.cls-10,.cls-14{fill:#380f13;}.cls-12,.cls-13,.cls-14{stroke-width:3px;}.cls-13{stroke:#380f13;}</style></defs><title>logoAsset 12</title><g id="Layer_2" data-name="Layer 2"><g id="Layer_1-2" data-name="Layer 1"><text class="cls-1" transform="translate(92.3 212.12)">COFFEE &amp; WINE <tspan class="cls-2" x="794.08" y="0">B</tspan><tspan class="cls-3" x="852.11" y="0">AR</tspan></text><text class="cls-4" transform="translate(90.23 314.96)">P<tspan class="cls-5" x="26.3" y="0">astries - Beer &amp; </tspan><tspan class="cls-6" x="347.07" y="0">W</tspan><tspan class="cls-5" x="390.66" y="0">ine - Li</tspan><tspan class="cls-7" x="537" y="0">v</tspan><tspan class="cls-5" x="558.91" y="0">e Music - Used Books</tspan></text><line class="cls-8" x1="90.08" y1="248.29" x2="1080.85" y2="248.29"/><text class="cls-9" transform="translate(91.15 117.43)"><tspan xml:space="preserve">THIRSTY      MIND</tspan></text><path class="cls-10" d="M681.15,30.86a17.73,17.73,0,0,1-1.46-8.21,7.31,7.31,0,0,1,2.19-4.45A25.68,25.68,0,0,1,685,15.61l.81-.62a26.59,26.59,0,0,0,4.58-4.33,18.16,18.16,0,0,0,2.92-5.89v0a18.91,18.91,0,0,1,1.56,7.46,7.5,7.5,0,0,1-2.35,5.39,34.43,34.43,0,0,1-3,2.48,32.73,32.73,0,0,0-3.83,3.24A20.19,20.19,0,0,0,681.15,30.86Z"/><path class="cls-11" d="M693.08,9.2a14.55,14.55,0,0,1,.26,3,5.92,5.92,0,0,1-1.88,4.33,32.28,32.28,0,0,1-2.9,2.37,35.28,35.28,0,0,0-4,3.39,19.4,19.4,0,0,0-3.15,4.31,12.49,12.49,0,0,1-.22-3.75A5.78,5.78,0,0,1,683,19.24a26,26,0,0,1,2.91-2.43l.83-.63a27.73,27.73,0,0,0,4.84-4.59,16.19,16.19,0,0,0,1.55-2.39M692.82,0a9.72,9.72,0,0,1-.43,2.52c-.18.6-.36,1.19-.55,1.79a16.66,16.66,0,0,1-2.66,5.41,25,25,0,0,1-4.33,4.09,37.12,37.12,0,0,0-4.05,3.35,8.77,8.77,0,0,0-2.6,5.34c-.38,3.76.88,7.63,2.45,11,.25.54.51,1.08.8,1.59-.08-.13.23-.86.28-1,.11-.37.21-.74.32-1.12a19.94,19.94,0,0,1,4.67-8.61c2.08-2.14,4.67-3.64,6.81-5.68a9,9,0,0,0,2.81-6.44,23.28,23.28,0,0,0-2.75-10.49c-.21-.41-.54-1.32-.77-1.72Z"/><path class="cls-11" d="M701.81,45.31c-.08-1.21.4-1.43-.68-.89-1.26.63-4.13,2.59-5.55,2.94-.45,0-1-.62-1-.16,0,2.41-4.71.42-4.78.45-4,.75-4.15-.08-8,.14a73.18,73.18,0,0,1-17.48-1.21c-.46-.78-2.84-1.73-3.53-1.23-1.36.29-1.46,2.3-.79,2.94.31,1.89-.07,1.35.08,3.3-.49.9,1.42,4.53,1.21,5.46-.81,3.57-.64,7.56,1.4,10.73A17.84,17.84,0,0,0,666,71.57c2.62,4.05,7.24,5.81,11.54,8.13,1.69.91,3.57,2.37,5.61,2.17,2.6-.27,5.44-3.09,7.45-4.44,2.22-1.5,5.44-2.9,7-5.13a6.54,6.54,0,0,0,.76-1.49,5.55,5.55,0,0,0,.51-.81c.49-.13,1.63-.56,1.76-1.14C702.37,61.05,702.31,53.31,701.81,45.31Z"/><path class="cls-12" d="M660.68,44.94a69.07,69.07,0,0,0,2.73,22.72,39.82,39.82,0,0,0,2,5.67"/><path class="cls-12" d="M702,43.83a65.07,65.07,0,0,1-1.21,22.52,47.77,47.77,0,0,1-2,6.63"/><path class="cls-12" d="M760.25,86.22l-3.55-6.94a.86.86,0,0,0-1.14-.39l-71.69,33.25a.91.91,0,0,1-.67,0L609,85a.87.87,0,0,0-1.12.51l-2.74,7.27a.86.86,0,0,0,.51,1.12l78.1,29a.89.89,0,0,0,.68,0l75.41-35.44A.87.87,0,0,0,760.25,86.22Z"/><path class="cls-12" d="M613.55,86.88s.57-11.66,4.77-16.06c0,0,24.24-3.39,65.07,21.53l.38,19"/><path class="cls-13" d="M661,68.34A169.26,169.26,0,0,1,683.2,79.69"/><path class="cls-12" d="M618.32,70.82l5.91-7.43S646,60,683,82.58l.38,8.63"/><path class="cls-13" d="M703.6,67.1a233.71,233.71,0,0,0-21.79,12.46"/><path class="cls-12" d="M751.36,80.29s-2.23-11.52-6.65-15.69c0,0-22.39.87-61.83,27.94"/><path class="cls-12" d="M744.71,64.6s-4-4.11-6.23-6.62c0,0-20.09.31-55.86,24.86"/><path class="cls-14" d="M660.68,44.94c0-1.9,6.42-3.67,15.25-4.37l.89-.07c1.41-.1,2.89-.17,4.4-.21,11.4-.3,20.69,1.28,20.75,3.54s-9.13,4.35-20.53,4.65S660.74,47.2,660.68,44.94Z"/></g></g></svg>